{"title":"Final Destination 5 2011 DVDrip English Klam","uid":7066786,"size":1616630549,"categoryP":"video","categoryS":"movies","magnet":"?xt=urn:btih:d7e3370e34b711b231440cece2c8f77ea0a2019b&amp;dn=Final+Destination+5+2011+DVDrip+English+Klam&amp;tr=udp%3A%2F%2Ftracker.openbittorrent.com%3A80&amp;tr=udp%3A%2F%2Fopen.demonii.com%3A1337&amp;tr=udp%3A%2F%2Ftracker.coppersurfer.tk%3A6969&amp;tr=udp%3A%2F%2Fexodus.desync.com%3A6969","seeders":1,"leechers":0,"uploader":"Klambake","files":-1,"time":1330541500,"description":"With: Nicholas D\\'Agosto, Emma Bell and Tony Todd\n\nHet voorgevoel van een man (Nicholas D\\'Agosto) redt een groep collega\\'s van een instortende hangbrug. Maar het was niet de bedoeling dat deze groep nietsvermoedende zielen dit zou overleven. In een race tegen de klok doet de onfortuinlijke groep verwoede pogingen om een manier te ontdekken om uit de sinistere agenda van de dood te ontsnappen.\n\nSurvivors of a suspension-bridge collapse learn there\\'s no way you can cheat Death. \n\n------------------------ Dutch Friends ------------------------\n---------------------------------------------------------------\n- Bezoek ook eens mijn vrienden op: &lt;a href=&quot; http://www.Film-Test.nl&quot; rel=&quot;nofollow&quot; target=&quot;_NEW&quot;&gt; http://www.Film-Test.nl&lt;/a&gt; --\n----- voor mijn Nederlandse Sync. ondertitels ---- en meer ----\n------- http://www.Film-Test.nl ---- voor Films en meer -------\n---------------------------------------------------------------\n\nGeneral:\n\nComplete name                    : Final Destination 5\\\\Final Destination 5.avi\nFormat                           : AVI\nFormat/Info                      : Audio Video Interleave\nFile size                        : 1.51 GiB\nDuration                         : 1h 31mn\nOverall bit rate                 : 2 347 Kbps\n\nVideo:\n\nFormat                           : MPEG-4 Visual\nFormat profile                   : Simple@L3\nFormat settings, BVOP            : No\nFormat settings, QPel            : No\nFormat settings, GMC             : No warppoints\nFormat settings, Matrix          : Default (H.263)\nCodec ID                         : XVID\nCodec ID/Hint                    : XviD\nDuration                         : 1h 31mn\nBit rate                         : 1 952 Kbps\nWidth                            : 720 pixels\nHeight                           : 304 pixels\nDisplay aspect ratio             : 2.35:1\nFrame rate                       : 23.976 fps\nColor space                      : YUV\nChroma subsampling               : 4:2:0\nBit depth                        : 8 bits\nScan type                        : Progressive\nCompression mode                 : Lossy\nBits/(Pixel*Frame)               : 0.372\nStream size                      : 1.25 GiB (83%)\nWriting library                  : XviD 1.1.2 (UTC 2006-11-01)\n\nAudio:\n\nFormat                           : AC-3\nFormat/Info                      : Audio Coding 3\nMode extension                   : CM (complete main)\nCodec ID                         : 2000\nDuration                         : 1h 31mn\nBit rate mode                    : Constant\nBit rate                         : 384 Kbps\nChannel(s)                       : 6 channels\nChannel positions                : Front: L C R, Side: L R, LFE\nSampling rate                    : 48.0 KHz\nBit depth                        : 16 bits\nCompression mode                 : Lossy\nStream size                      : 252 MiB (16%)\nAlignment                        : Aligned on interleaves\nInterleave, duration             : 32 ms (0.77 video frame)\nInterleave, preload duration     : 288 ms\n\n","torrent":{"xt":"urn:btih:d7e3370e34b711b231440cece2c8f77ea0a2019b","amp;dn":"Final+Destination+5+2011+DVDrip+English+Klam","amp;tr":["udp%3A%2F%2Ftracker.openbittorrent.com%3A80","udp%3A%2F%2Fopen.demonii.com%3A1337","udp%3A%2F%2Ftracker.coppersurfer.tk%3A6969","udp%3A%2F%2Fexodus.desync.com%3A6969"],"infoHash":"d7e3370e34b711b231440cece2c8f77ea0a2019b","infoHashBuffer":{"type":"Buffer","data":[215,227,55,14,52,183,17,178,49,68,12,236,226,200,247,126,160,162,1,155]},"announce":[],"urlList":[]}}